<?xml version="1.0" standalone="no"?>
<!DOCTYPE svg PUBLIC "-//W3C//DTD SVG 20010904//EN"
 "http://www.w3.org/TR/2001/REC-SVG-20010904/DTD/svg10.dtd">
<svg version="1.0" xmlns="http://www.w3.org/2000/svg"
 width="211.000000pt" height="211.000000pt" viewBox="0 0 211.000000 211.000000"
 preserveAspectRatio="xMidYMid meet">
<metadata>
Created by potrace 1.11, written by Peter Selinger 2001-2013
</metadata>
<g transform="translate(0.000000,211.000000) scale(0.100000,-0.100000)"
fill="#000000" stroke="none">
<path d="M576 2070 c-22 -17 -35 -30 -30 -30 5 0 -4 -9 -21 -20 -16 -11 -27
-20 -24 -20 7 0 -288 -297 -352 -355 -21 -19 -36 -35 -32 -35 4 0 -8 -11 -27
-25 -19 -14 -30 -25 -26 -25 5 0 -7 -14 -25 -31 l-34 -32 2 -436 c3 -699 6
-921 11 -921 2 0 47 43 98 95 52 52 99 95 104 95 6 0 10 3 10 8 0 12 57 72 68
72 6 0 12 4 14 10 4 12 138 151 138 143 0 -3 10 7 22 23 12 16 27 32 33 36 5
4 10 11 11 15 0 4 5 17 10 28 4 11 8 47 7 80 -3 151 -9 244 -15 251 -4 3 -55
-40 -113 -97 -58 -57 -110 -106 -115 -107 -6 -2 -8 -8 -4 -13 3 -5 -2 -9 -10
-9 -18 0 -16 -21 -20 313 -1 114 2 207 7 207 4 0 6 4 2 9 -3 5 44 60 105 123
60 62 110 116 110 120 0 5 3 7 8 6 4 0 67 58 140 130 73 73 141 133 150 133
98 7 512 3 515 -6 4 -12 -39 -55 -47 -47 -3 3 -6 1 -6 -5 0 -14 -108 -122
-115 -115 -3 3 -5 1 -5 -5 0 -5 -16 -26 -35 -46 -19 -20 -35 -33 -35 -29 0 4
-8 -5 -18 -21 -10 -15 -22 -24 -25 -20 -4 3 -7 1 -7 -5 0 -7 -11 -22 -25 -34
-31 -27 -19 -36 43 -32 26 2 101 5 167 8 66 2 133 9 148 15 32 12 594 568 589
583 -1 5 2 7 7 4 5 -4 12 -2 16 4 3 5 3 10 -2 11 -4 0 -17 2 -28 5 -11 2 -131
6 -267 8 -135 2 -251 7 -257 10 -6 4 -11 3 -11 -2 0 -5 -10 -8 -22 -6 -13 1
-23 3 -23 4 0 0 -162 3 -360 5 l-360 5 -39 -30z"/>
<path d="M1081 1003 c-678 -680 -969 -978 -960 -984 7 -4 193 -5 413 -3 221 3
492 6 603 7 112 1 203 5 203 9 0 4 11 3 25 -2 14 -5 25 -6 25 -2 0 4 30 7 67
6 99 0 98 -4 94 200 -7 409 -6 604 4 612 12 11 265 12 265 2 0 -4 11 -3 24 2
13 5 26 7 29 4 10 -10 193 -7 213 4 20 11 21 17 18 159 -2 81 -6 154 -9 161
-2 6 1 12 8 12 7 0 8 3 2 8 -6 4 -11 61 -12 127 -6 423 -9 495 -17 495 -6 0
-5 5 2 12 7 7 8 17 1 30 -7 12 -6 18 1 18 6 0 8 5 5 11 -4 6 -8 27 -10 47 -1
20 -6 37 -11 38 -5 1 -447 -437 -983 -973z m690 290 c0 -27 2 -72 3 -100 2
-34 -2 -57 -10 -63 -6 -6 -60 -12 -118 -14 l-106 -4 17 29 c10 16 23 29 30 29
7 0 13 8 13 17 0 9 3 13 7 10 3 -4 15 5 25 20 10 16 18 25 18 21 0 -4 16 9 35
29 19 20 35 40 35 45 0 5 4 7 9 4 5 -3 11 1 15 9 11 31 26 13 27 -32z m-524
-663 c-1 -93 -4 -170 -7 -170 -3 0 -5 -39 -4 -88 0 -48 -1 -92 -3 -97 -2 -6
-38 -11 -81 -12 -186 -3 -428 -5 -440 -4 -13 1 515 539 530 540 3 1 6 -75 5
-169z"/>
</g>
</svg>
